# xmcd
#
# Track frame offsets:
# 150
# 18766
# 34528
# 50382
# 74788
#
# Disc length: 1310 seconds
#
# Revision: 0
# Processed by: cddbd v1.5.1PL0 Copyright (c) Steve Scherf et al.
# Submitted via: Audion 3.0.2 (http://www.panic.com/audion/)
#
DISCID=3a051c05
DTITLE=parker street cinema - parker street cinema
DYEAR=1900
DGENRE=
TTITLE0=deliver
TTITLE1=little red and black circles, floating
TTITLE2=midnight shakes the memory
TTITLE3=take courage
TTITLE4=the treansmissions
EXTD=
EXTT0=
EXTT1=
EXTT2=
EXTT3=
EXTT4=
PLAYORDER=
